<svg width="1024" height="1024" viewBox="0 0 180 180" fill="none"
  xmlns="http://www.w3.org/2000/svg" xmlns:xlink="http://www.w3.org/1999/xlink">
  <desc>
    Created with Pixso.
  </desc>
  <defs>
    <clipPath id="clip4_9">
      <rect id="svg" width="131.249329" height="115.584473"
        transform="translate(25.000000 32.000000)" fill="white" fill-opacity="0" />
    </clipPath>
  </defs>
  <rect id="矩形 1" width="180.000000" height="180.000000" fill="#FFFFFF" fill-opacity="1.000000" />
  <g clip-path="url(#clip4_9)">
    <path id="path"
      d="M96.14 119.75C95.62 119.75 95.09 119.74 94.56 119.72C94.28 119.71 93.75 119.71 93 119.71C54.53 119.65 32.18 110.77 28.43 94.01C23.66 72.73 38.53 63.77 44.79 61.01C44.43 56.64 44.62 47.91 50.24 40.77C56.9 32.32 65.91 29.78 74.33 33.99C81 37.31 85.14 43.97 83.77 49.14C83.71 49.35 83.64 49.55 83.55 49.74C83.45 49.93 83.34 50.11 83.21 50.28C83.09 50.45 82.94 50.61 82.78 50.75C82.62 50.89 82.45 51.01 82.27 51.12C82.08 51.23 81.89 51.32 81.69 51.38C81.49 51.45 81.28 51.5 81.07 51.53C80.86 51.56 80.65 51.57 80.43 51.55C80.22 51.54 80.01 51.5 79.81 51.45C79.6 51.4 79.4 51.32 79.21 51.23C79.02 51.13 78.84 51.02 78.67 50.89C78.5 50.77 78.34 50.62 78.2 50.46C78.06 50.3 77.94 50.13 77.83 49.95C77.72 49.76 77.64 49.57 77.57 49.37C77.5 49.17 77.45 48.96 77.42 48.75C77.39 48.54 77.39 48.33 77.4 48.11C77.41 47.9 77.45 47.69 77.5 47.49C77.93 45.85 75.74 41.93 71.43 39.79C68.17 38.16 61.73 36.64 55.32 44.78C49.54 52.14 51.47 62.38 51.49 62.48C51.81 64.14 50.81 65.77 49.19 66.23C48.43 66.45 30.14 72.03 34.75 92.59C37.72 105.85 58.41 113.18 93 113.23C93.86 113.23 94.48 113.23 94.81 113.25C104.9 113.64 113.98 109.3 117.44 102.45C120.75 95.89 118.68 87.43 111.62 78.61C111.35 78.27 111.16 77.9 111.04 77.49C110.92 77.07 110.88 76.65 110.93 76.23C110.98 75.8 111.1 75.4 111.31 75.02C111.52 74.64 111.79 74.32 112.12 74.05C112.46 73.78 112.83 73.59 113.24 73.47C113.65 73.35 114.07 73.31 114.5 73.36C114.93 73.41 115.33 73.53 115.71 73.74C116.08 73.95 116.41 74.22 116.68 74.55C128.47 89.29 125.85 100.18 123.23 105.37C118.77 114.21 108.26 119.75 96.14 119.75Z"
      fill="#007FFF" fill-opacity="1.000000" fill-rule="nonzero" />
    <path id="path"
      d="M110.49 71.52C110.22 71.52 109.96 71.49 109.69 71.42C109.43 71.36 109.18 71.26 108.95 71.13C108.71 71 108.49 70.85 108.29 70.67C108.1 70.48 107.92 70.28 107.78 70.05C107.63 69.83 107.51 69.59 107.42 69.33C107.34 69.08 107.28 68.82 107.26 68.55C107.24 68.28 107.25 68.01 107.29 67.75C107.33 67.48 107.41 67.22 107.52 66.98C107.82 66.27 114.95 49.43 101.34 43.23C96.42 40.99 92.09 42.63 89.33 44.4C84.35 47.61 80.74 53.72 80.74 58.94C80.74 60.73 79.29 62.18 77.5 62.18C75.71 62.18 74.26 60.73 74.26 58.94C74.26 51.55 79.02 43.34 85.82 38.96C91.64 35.22 98.1 34.64 104.02 37.34C119.57 44.42 116.98 61.53 113.44 69.59C113.32 69.88 113.15 70.14 112.95 70.38C112.74 70.62 112.51 70.83 112.25 71C111.98 71.17 111.7 71.3 111.4 71.39C111.1 71.48 110.81 71.52 110.49 71.52ZM36.39 128.41C36.06 128.41 35.74 128.37 35.41 128.25C29.75 126.49 26.34 123.44 25.31 119.2C23.24 110.78 32.05 101.7 33.06 100.7C33.21 100.55 33.37 100.42 33.55 100.3C33.72 100.18 33.91 100.08 34.11 100C34.3 99.92 34.5 99.86 34.71 99.81C34.91 99.77 35.13 99.75 35.34 99.75C35.56 99.75 35.77 99.77 35.98 99.81C36.18 99.86 36.39 99.92 36.59 100C36.78 100.08 36.97 100.18 37.15 100.3C37.32 100.42 37.49 100.55 37.64 100.7C37.93 101 38.16 101.36 38.34 101.75C38.5 102.15 38.58 102.56 38.58 102.99C38.58 103.42 38.5 103.83 38.34 104.23C38.16 104.63 37.93 104.98 37.64 105.28C35.75 107.18 30.58 113.52 31.6 117.66C32.06 119.54 34 121.02 37.34 122.08C39.06 122.62 40 124.43 39.47 126.14C39.37 126.47 39.22 126.78 39.02 127.06C38.82 127.34 38.58 127.58 38.3 127.79C38.02 127.99 37.72 128.14 37.39 128.25C37.06 128.36 36.73 128.41 36.39 128.41ZM64.37 147.58C55.14 147.58 48.53 144.06 44.62 137.03C41.68 131.77 40.95 126.65 42.44 121.82C44.94 113.72 52.9 109.65 53.23 109.49C53.42 109.39 53.62 109.31 53.82 109.26C54.03 109.2 54.24 109.16 54.45 109.15C54.66 109.13 54.87 109.14 55.08 109.16C55.3 109.19 55.5 109.24 55.7 109.3C55.91 109.37 56.1 109.46 56.29 109.56C56.47 109.67 56.64 109.79 56.8 109.93C56.97 110.06 57.11 110.22 57.24 110.39C57.37 110.55 57.49 110.73 57.58 110.92C57.68 111.11 57.75 111.31 57.81 111.51C57.87 111.72 57.91 111.93 57.92 112.14C57.94 112.35 57.93 112.56 57.91 112.78C57.88 112.99 57.83 113.19 57.77 113.4C57.7 113.6 57.61 113.79 57.51 113.98C57.4 114.16 57.28 114.33 57.14 114.5C57.01 114.66 56.85 114.8 56.68 114.93C56.52 115.06 56.34 115.18 56.15 115.27C56.09 115.3 50.29 118.32 48.63 123.76C47.69 126.83 48.25 130.24 50.29 133.89C54.78 141.94 64.77 143.27 80.84 137.92C81.7 137.64 82.54 137.35 83.36 137.07C92.97 133.78 101.27 130.96 119.56 136.45C128.67 139.17 136.25 138.98 141.48 135.86C145.33 133.56 147.92 129.64 148.98 124.52C150.55 116.92 149.75 111.08 146.56 106.66C142.5 101.06 134.37 97.51 122.39 96.14C122.18 96.12 121.97 96.07 121.77 96.01C121.56 95.94 121.37 95.86 121.18 95.76C121 95.65 120.82 95.53 120.66 95.39C120.5 95.26 120.35 95.1 120.22 94.94C120.09 94.77 119.97 94.59 119.87 94.4C119.78 94.21 119.7 94.02 119.64 93.81C119.58 93.61 119.54 93.4 119.53 93.19C119.51 92.98 119.51 92.76 119.54 92.55C119.74 90.77 121.35 89.5 123.13 89.7C136.99 91.29 146.64 95.72 151.81 102.86C156.13 108.83 157.28 116.35 155.32 125.83C153.89 132.77 150.25 138.17 144.81 141.42C137.97 145.5 128.6 145.92 117.7 142.66C101.4 137.77 94.36 140.17 85.45 143.21C84.61 143.5 83.76 143.78 82.88 144.08C75.86 146.41 69.68 147.58 64.37 147.58Z"
      fill="#007FFF" fill-opacity="1.000000" fill-rule="nonzero" />
    <path id="path"
      d="M144.17 103.11C143.39 103.11 142.59 102.82 141.96 102.24C141.81 102.09 141.67 101.93 141.53 101.76C141.42 101.59 141.31 101.4 141.23 101.21C141.14 101.02 141.07 100.81 141.02 100.61C140.97 100.4 140.94 100.19 140.94 99.98C140.92 99.76 140.94 99.55 140.98 99.34C141 99.13 141.07 98.93 141.14 98.73C141.21 98.53 141.31 98.34 141.42 98.16C141.53 97.98 141.66 97.81 141.81 97.65C142.44 96.96 143.67 95.06 143.39 93.69C143.17 92.53 141.75 91.64 140.6 91.09C139.17 90.4 138.03 90.26 137.22 90.66C135.71 91.41 134.87 93.92 134.69 94.75C134.32 96.49 132.61 97.62 130.87 97.26C130.45 97.17 130.07 97.01 129.71 96.77C129.36 96.53 129.06 96.23 128.82 95.88C128.59 95.52 128.42 95.14 128.34 94.72C128.25 94.3 128.25 93.88 128.34 93.46C128.47 92.82 129.72 87.17 134.31 84.88C136.17 83.95 139.25 83.26 143.39 85.25C147.94 87.41 149.37 90.39 149.77 92.51C150.7 97.45 146.97 101.63 146.55 102.08C146.24 102.41 145.88 102.66 145.47 102.84C145.06 103.02 144.63 103.11 144.17 103.11ZM73.19 89.26C72.99 90.7 71.45 92.64 69.93 92.42C68.4 92.21 67.46 89.92 67.67 88.48C67.87 87.04 69.14 87 70.67 87.21C72.19 87.42 73.4 87.83 73.19 89.26Z"
      fill="#007FFF" fill-opacity="1.000000" fill-rule="nonzero" />
    <path id="path"
      d="M61.37 84.36L55.23 82.82C54.14 82.55 53.17 82.03 52.33 81.25C51.49 80.47 50.87 79.54 50.48 78.45C50.09 77.35 49.95 76.22 50.08 75.05L50.65 68.43C50.78 67.5 51.06 66.65 51.5 65.87C51.93 65.09 52.49 64.46 53.19 63.98C53.89 63.5 54.65 63.17 55.47 63.01C56.3 62.84 57.13 62.86 57.96 63.07L70.25 66.13C71.12 66.35 71.87 66.73 72.52 67.28C73.16 67.83 73.64 68.48 73.97 69.24C74.01 69.36 74.05 69.48 74.09 69.59C74.24 70.07 74.65 70.43 75.14 70.51C75.49 70.57 75.83 70.65 76.16 70.77C76.61 70.92 77.13 70.81 77.48 70.48C77.58 70.38 77.69 70.29 77.81 70.2C78.45 69.68 79.18 69.33 80.01 69.15C80.83 68.96 81.68 68.98 82.55 69.2L94.84 72.26C95.67 72.47 96.41 72.84 97.06 73.37C97.71 73.91 98.23 74.55 98.62 75.31C99.01 76.06 99.21 76.87 99.23 77.75C99.25 78.62 99.11 79.48 98.79 80.33L96.1 86.63C95.7 87.7 95.07 88.62 94.22 89.38C93.36 90.14 92.38 90.67 91.27 90.96C90.16 91.25 89.06 91.26 87.98 90.99L81.83 89.46C80.23 89.06 78.89 88.13 77.81 86.67C76.72 85.21 76.19 83.63 76.21 81.93L75.79 76.01C75.78 75.81 75.71 75.62 75.57 75.48C75.29 75.21 74.96 75.02 74.56 74.92C74.17 74.83 73.79 74.83 73.42 74.94C73.23 74.99 73.07 75.14 72.97 75.31L69.78 80.49C69.01 81.97 67.8 83.08 66.17 83.82C64.54 84.57 62.94 84.75 61.37 84.36Z"
      fill="#007FFF" fill-opacity="1.000000" fill-rule="nonzero" />
    <path id="path"
      d="M55.23 82.82C54.14 82.55 53.17 82.03 52.33 81.25C51.49 80.47 50.87 79.54 50.48 78.45C50.09 77.35 49.95 76.22 50.08 75.05L50.65 68.43C50.78 67.5 51.06 66.65 51.5 65.87C51.93 65.09 52.49 64.46 53.19 63.98C53.89 63.5 54.65 63.17 55.47 63.01C56.3 62.84 57.13 62.86 57.96 63.07L70.25 66.13C71.12 66.35 71.87 66.73 72.52 67.28C73.16 67.83 73.64 68.48 73.97 69.24C74.01 69.36 74.05 69.48 74.09 69.59C74.24 70.07 74.65 70.43 75.14 70.51C75.49 70.57 75.83 70.65 76.16 70.77C76.61 70.92 77.13 70.81 77.48 70.48C77.58 70.38 77.69 70.29 77.81 70.2C78.45 69.68 79.18 69.33 80.01 69.15C80.83 68.96 81.68 68.98 82.55 69.2L94.84 72.26C95.67 72.47 96.41 72.84 97.06 73.37C97.71 73.91 98.23 74.55 98.62 75.31C99.01 76.06 99.21 76.87 99.23 77.75C99.25 78.62 99.11 79.48 98.79 80.33L96.1 86.63C95.7 87.7 95.07 88.62 94.22 89.38C93.36 90.14 92.38 90.67 91.27 90.96C90.16 91.25 89.06 91.26 87.98 90.99L81.83 89.46C80.23 89.06 78.89 88.13 77.81 86.67C76.72 85.21 76.19 83.63 76.21 81.93L75.79 76.01C75.78 75.81 75.71 75.62 75.57 75.48C75.29 75.21 74.96 75.02 74.56 74.92C74.17 74.83 73.79 74.83 73.42 74.94C73.23 74.99 73.07 75.14 72.97 75.31L69.78 80.49C69.01 81.97 67.8 83.08 66.17 83.82C64.54 84.57 62.94 84.75 61.37 84.36L55.23 82.82Z"
      fill="#7E2525" fill-opacity="0" fill-rule="nonzero" />
    <path id="path"
      d="M52.33 81.25C51.49 80.47 50.87 79.54 50.48 78.45C50.09 77.35 49.95 76.22 50.08 75.05L50.65 68.43C50.78 67.5 51.06 66.65 51.5 65.87C51.93 65.09 52.49 64.46 53.19 63.98C53.89 63.5 54.65 63.17 55.47 63.01C56.3 62.84 57.13 62.86 57.96 63.07L70.25 66.13C71.12 66.35 71.87 66.73 72.52 67.28C73.16 67.83 73.64 68.48 73.97 69.24C74.01 69.36 74.05 69.48 74.09 69.59C74.24 70.07 74.65 70.43 75.14 70.51C75.49 70.57 75.83 70.65 76.16 70.77C76.61 70.92 77.13 70.81 77.48 70.48C77.58 70.38 77.69 70.29 77.81 70.2C78.45 69.68 79.18 69.33 80.01 69.15C80.83 68.96 81.68 68.98 82.55 69.2L94.84 72.26C95.67 72.47 96.41 72.84 97.06 73.37C97.71 73.91 98.23 74.55 98.62 75.31C99.01 76.06 99.21 76.87 99.23 77.75C99.25 78.62 99.11 79.48 98.79 80.33L96.1 86.63C95.7 87.7 95.07 88.62 94.22 89.38C93.36 90.14 92.38 90.67 91.27 90.96C90.16 91.25 89.06 91.26 87.98 90.99L81.83 89.46C80.23 89.06 78.89 88.13 77.81 86.67C76.72 85.21 76.19 83.63 76.21 81.93L75.79 76.01C75.78 75.81 75.71 75.62 75.57 75.48C75.29 75.21 74.96 75.02 74.56 74.92C74.17 74.83 73.79 74.83 73.42 74.94C73.23 74.99 73.07 75.14 72.97 75.31L69.78 80.49C69.01 81.97 67.8 83.08 66.17 83.82C64.54 84.57 62.94 84.75 61.37 84.36L55.23 82.82C54.14 82.55 53.17 82.03 52.33 81.25Z"
      stroke="#007FFF" stroke-opacity="0" stroke-width="1.000003" />
    <path id="path"
      d="M65.43 66.61L63.78 65.98C59.33 64.27 56.01 64 54.55 65.25C53.1 66.5 52.19 71.41 52.41 75.54L65.43 66.61Z"
      fill="#7CBDFF" fill-opacity="1.000000" fill-rule="nonzero" />
    <path id="path"
      d="M89.5 72.67L87.98 72.09C83.87 70.51 80.79 70.3 79.42 71.53C78.05 72.76 77.12 77.51 77.26 81.49L89.5 72.67Z"
      fill="#7CBDFF" fill-opacity="1.000000" fill-rule="nonzero" />
  </g>
</svg>
