<svg width="131.249329" height="115.584473" viewBox="0 0 131.249 115.584" fill="none"
  xmlns="http://www.w3.org/2000/svg" xmlns:xlink="http://www.w3.org/1999/xlink">
  <desc>
    Created with Pixso.
  </desc>
  <defs />
  <path id="path"
    d="M71.14 87.75C70.62 87.75 70.09 87.74 69.56 87.72C69.28 87.71 68.75 87.71 68 87.71C29.53 87.65 7.19 78.77 3.43 62.01C-1.34 40.73 13.53 31.77 19.79 29.01C19.43 24.64 19.62 15.91 25.24 8.77C31.9 0.32 40.91 -2.22 49.33 1.99C56 5.31 60.14 11.97 58.77 17.14C58.71 17.35 58.64 17.55 58.55 17.74C58.45 17.93 58.34 18.11 58.21 18.28C58.09 18.45 57.94 18.61 57.78 18.75C57.62 18.89 57.45 19.01 57.27 19.12C57.08 19.23 56.89 19.32 56.69 19.38C56.49 19.45 56.28 19.5 56.07 19.53C55.86 19.56 55.65 19.57 55.43 19.55C55.22 19.54 55.01 19.5 54.81 19.45C54.6 19.4 54.4 19.32 54.21 19.23C54.02 19.13 53.84 19.02 53.67 18.89C53.5 18.77 53.34 18.62 53.2 18.46C53.06 18.3 52.94 18.13 52.83 17.95C52.72 17.76 52.64 17.57 52.57 17.37C52.5 17.17 52.45 16.96 52.42 16.75C52.39 16.54 52.39 16.33 52.4 16.11C52.41 15.9 52.45 15.69 52.5 15.49C52.93 13.85 50.74 9.93 46.43 7.79C43.17 6.16 36.73 4.64 30.32 12.78C24.54 20.14 26.47 30.38 26.49 30.48C26.81 32.14 25.81 33.77 24.19 34.23C23.43 34.45 5.14 40.03 9.75 60.59C12.72 73.85 33.41 81.18 68 81.23C68.86 81.23 69.48 81.23 69.81 81.25C79.9 81.64 88.98 77.3 92.44 70.45C95.75 63.89 93.68 55.43 86.62 46.61C86.35 46.27 86.16 45.9 86.04 45.49C85.92 45.07 85.88 44.65 85.93 44.23C85.98 43.8 86.1 43.4 86.31 43.02C86.52 42.64 86.79 42.32 87.12 42.05C87.46 41.78 87.83 41.59 88.24 41.47C88.65 41.35 89.07 41.31 89.5 41.36C89.93 41.41 90.33 41.53 90.71 41.74C91.08 41.95 91.41 42.22 91.68 42.55C103.47 57.29 100.85 68.18 98.23 73.37C93.77 82.21 83.26 87.75 71.14 87.75Z"
    fill="#007FFF" fill-opacity="1.000000" fill-rule="nonzero" />
  <path id="path"
    d="M85.49 39.52C85.22 39.52 84.96 39.49 84.69 39.42C84.43 39.36 84.18 39.26 83.95 39.13C83.71 39 83.49 38.85 83.29 38.67C83.1 38.48 82.92 38.28 82.78 38.05C82.63 37.83 82.51 37.59 82.42 37.33C82.34 37.08 82.28 36.82 82.26 36.55C82.24 36.28 82.25 36.01 82.29 35.75C82.33 35.48 82.41 35.22 82.52 34.98C82.82 34.27 89.95 17.43 76.34 11.23C71.42 8.99 67.09 10.63 64.33 12.4C59.35 15.61 55.74 21.72 55.74 26.94C55.74 28.73 54.29 30.18 52.5 30.18C50.71 30.18 49.26 28.73 49.26 26.94C49.26 19.55 54.02 11.34 60.82 6.96C66.64 3.22 73.1 2.64 79.02 5.34C94.57 12.42 91.98 29.53 88.44 37.59C88.32 37.88 88.15 38.14 87.95 38.38C87.74 38.62 87.51 38.83 87.25 39C86.98 39.17 86.7 39.3 86.4 39.39C86.1 39.48 85.81 39.52 85.49 39.52ZM11.39 96.41C11.06 96.41 10.74 96.37 10.42 96.26C4.75 94.49 1.34 91.44 0.31 87.2C-1.75 78.78 7.05 69.7 8.06 68.7C8.21 68.55 8.37 68.42 8.55 68.3C8.72 68.18 8.91 68.08 9.11 68C9.3 67.92 9.51 67.86 9.71 67.81C9.92 67.77 10.13 67.75 10.35 67.75C10.56 67.75 10.77 67.77 10.98 67.81C11.19 67.86 11.39 67.92 11.59 68C11.78 68.08 11.97 68.18 12.15 68.3C12.32 68.42 12.49 68.55 12.64 68.7C12.94 69 13.17 69.36 13.34 69.75C13.5 70.15 13.58 70.56 13.58 70.99C13.58 71.42 13.5 71.83 13.34 72.23C13.17 72.63 12.94 72.98 12.64 73.28C10.75 75.18 5.58 81.52 6.6 85.66C7.06 87.54 9 89.02 12.35 90.08C14.06 90.62 15.01 92.43 14.47 94.14C14.37 94.47 14.22 94.78 14.02 95.06C13.82 95.34 13.58 95.58 13.3 95.79C13.02 95.99 12.72 96.15 12.39 96.25C12.06 96.36 11.73 96.41 11.39 96.41ZM39.37 115.58C30.14 115.58 23.53 112.06 19.62 105.04C16.68 99.77 15.95 94.65 17.44 89.82C19.94 81.72 27.9 77.65 28.23 77.49C28.42 77.39 28.62 77.31 28.82 77.26C29.03 77.2 29.24 77.16 29.45 77.15C29.66 77.13 29.87 77.14 30.08 77.16C30.3 77.19 30.5 77.24 30.7 77.3C30.91 77.37 31.1 77.46 31.29 77.56C31.47 77.67 31.64 77.79 31.8 77.93C31.97 78.06 32.11 78.22 32.24 78.39C32.37 78.55 32.49 78.73 32.58 78.92C32.68 79.11 32.75 79.31 32.81 79.51C32.87 79.72 32.91 79.93 32.92 80.14C32.94 80.35 32.93 80.56 32.91 80.78C32.88 80.99 32.83 81.19 32.77 81.4C32.7 81.6 32.61 81.79 32.51 81.98C32.4 82.16 32.28 82.33 32.14 82.5C32.01 82.66 31.85 82.8 31.68 82.93C31.52 83.06 31.34 83.18 31.15 83.27C31.09 83.3 25.29 86.32 23.63 91.76C22.69 94.83 23.25 98.24 25.29 101.89C29.78 109.94 39.77 111.27 55.84 105.92C56.7 105.64 57.54 105.35 58.36 105.07C67.97 101.79 76.27 98.96 94.56 104.45C103.68 107.18 111.25 106.98 116.48 103.86C120.33 101.56 122.93 97.64 123.98 92.52C125.55 84.92 124.76 79.08 121.56 74.66C117.5 69.06 109.37 65.51 97.39 64.14C97.18 64.12 96.97 64.07 96.77 64.01C96.56 63.94 96.37 63.86 96.18 63.76C96 63.65 95.82 63.53 95.66 63.39C95.5 63.26 95.35 63.1 95.22 62.94C95.09 62.77 94.97 62.59 94.87 62.4C94.78 62.21 94.7 62.02 94.64 61.81C94.58 61.61 94.54 61.4 94.53 61.19C94.51 60.98 94.51 60.76 94.54 60.55C94.74 58.77 96.35 57.5 98.13 57.7C111.99 59.29 121.64 63.72 126.81 70.86C131.13 76.83 132.28 84.35 130.32 93.83C128.89 100.77 125.25 106.17 119.81 109.42C112.97 113.5 103.6 113.93 92.7 110.66C76.4 105.77 69.36 108.17 60.45 111.21C59.61 111.5 58.76 111.79 57.88 112.08C50.86 114.41 44.68 115.58 39.37 115.58Z"
    fill="#007FFF" fill-opacity="1.000000" fill-rule="nonzero" />
  <path id="path"
    d="M119.18 71.11C118.39 71.11 117.59 70.82 116.96 70.24C116.81 70.09 116.67 69.93 116.54 69.76C116.42 69.59 116.31 69.4 116.23 69.21C116.14 69.02 116.07 68.81 116.02 68.61C115.97 68.4 115.94 68.19 115.94 67.98C115.93 67.76 115.94 67.55 115.98 67.34C116.01 67.13 116.07 66.93 116.14 66.73C116.21 66.53 116.31 66.34 116.42 66.16C116.53 65.98 116.66 65.81 116.81 65.65C117.44 64.96 118.67 63.06 118.4 61.69C118.17 60.53 116.75 59.64 115.6 59.09C114.17 58.4 113.03 58.26 112.22 58.66C110.71 59.41 109.87 61.92 109.69 62.75C109.32 64.49 107.61 65.62 105.87 65.26C105.45 65.17 105.07 65.01 104.71 64.77C104.36 64.53 104.06 64.23 103.82 63.88C103.59 63.52 103.43 63.14 103.34 62.72C103.26 62.3 103.26 61.88 103.34 61.46C103.47 60.82 104.72 55.17 109.31 52.88C111.17 51.95 114.25 51.26 118.4 53.25C122.94 55.41 124.37 58.39 124.77 60.51C125.7 65.45 121.97 69.63 121.55 70.08C121.24 70.41 120.88 70.66 120.47 70.84C120.06 71.02 119.63 71.11 119.18 71.11ZM48.19 57.26C47.99 58.7 46.45 60.64 44.93 60.42C43.4 60.21 42.46 57.92 42.67 56.48C42.87 55.04 44.14 55 45.67 55.21C47.19 55.42 48.4 55.83 48.19 57.26Z"
    fill="#007FFF" fill-opacity="1.000000" fill-rule="nonzero" />
  <path id="path"
    d="M36.37 52.36L30.23 50.82C29.14 50.55 28.17 50.03 27.33 49.25C26.49 48.47 25.87 47.54 25.48 46.45C25.09 45.35 24.95 44.22 25.08 43.05L25.65 36.43C25.78 35.5 26.06 34.65 26.5 33.87C26.93 33.09 27.49 32.46 28.19 31.98C28.89 31.5 29.65 31.17 30.47 31.01C31.3 30.84 32.13 30.86 32.96 31.07L45.25 34.13C46.12 34.35 46.87 34.73 47.52 35.28C48.16 35.83 48.64 36.48 48.97 37.24C49.01 37.36 49.05 37.48 49.09 37.59C49.24 38.07 49.65 38.43 50.14 38.51C50.49 38.57 50.83 38.65 51.16 38.77C51.61 38.92 52.13 38.81 52.48 38.48C52.58 38.38 52.69 38.29 52.81 38.2C53.45 37.68 54.18 37.33 55.01 37.15C55.83 36.96 56.68 36.98 57.55 37.2L69.84 40.26C70.67 40.47 71.41 40.84 72.06 41.37C72.71 41.91 73.23 42.55 73.62 43.31C74.01 44.06 74.21 44.87 74.23 45.75C74.25 46.62 74.11 47.48 73.79 48.33L71.1 54.63C70.7 55.7 70.07 56.62 69.22 57.38C68.36 58.14 67.38 58.67 66.27 58.96C65.16 59.25 64.06 59.26 62.98 58.99L56.83 57.46C55.23 57.06 53.89 56.13 52.81 54.67C51.72 53.21 51.19 51.63 51.21 49.93L50.79 44.01C50.78 43.81 50.71 43.62 50.57 43.48C50.29 43.21 49.96 43.02 49.56 42.92C49.17 42.83 48.79 42.83 48.42 42.94C48.23 42.99 48.07 43.14 47.97 43.31L44.78 48.49C44.01 49.97 42.8 51.08 41.17 51.82C39.54 52.57 37.94 52.75 36.37 52.36Z"
    fill="#007FFF" fill-opacity="1.000000" fill-rule="nonzero" />
  <path id="path"
    d="M30.23 50.82C29.14 50.55 28.17 50.03 27.33 49.25C26.49 48.47 25.87 47.54 25.48 46.45C25.09 45.35 24.95 44.22 25.08 43.05L25.65 36.43C25.78 35.5 26.06 34.65 26.5 33.87C26.93 33.09 27.49 32.46 28.19 31.98C28.89 31.5 29.65 31.17 30.47 31.01C31.3 30.84 32.13 30.86 32.96 31.07L45.25 34.13C46.12 34.35 46.87 34.73 47.52 35.28C48.16 35.83 48.64 36.48 48.97 37.24C49.01 37.36 49.05 37.48 49.09 37.59C49.24 38.07 49.65 38.43 50.14 38.51C50.49 38.57 50.83 38.65 51.16 38.77C51.61 38.92 52.13 38.81 52.48 38.48C52.58 38.38 52.69 38.29 52.81 38.2C53.45 37.68 54.18 37.33 55.01 37.15C55.83 36.96 56.68 36.98 57.55 37.2L69.84 40.26C70.67 40.47 71.41 40.84 72.06 41.37C72.71 41.91 73.23 42.55 73.62 43.31C74.01 44.06 74.21 44.87 74.23 45.75C74.25 46.62 74.11 47.48 73.79 48.33L71.1 54.63C70.7 55.7 70.07 56.62 69.22 57.38C68.36 58.14 67.38 58.67 66.27 58.96C65.16 59.25 64.06 59.26 62.98 58.99L56.83 57.46C55.23 57.06 53.89 56.13 52.81 54.67C51.72 53.21 51.19 51.63 51.21 49.93L50.79 44.01C50.78 43.81 50.71 43.62 50.57 43.48C50.29 43.21 49.96 43.02 49.56 42.92C49.17 42.83 48.79 42.83 48.42 42.94C48.23 42.99 48.07 43.14 47.97 43.31L44.78 48.49C44.01 49.97 42.8 51.08 41.17 51.82C39.54 52.57 37.94 52.75 36.37 52.36L30.23 50.82Z"
    stroke="#007FFF" stroke-opacity="0" stroke-width="1.000000" />
  <path id="path"
    d="M40.43 34.61L38.78 33.98C34.33 32.27 31.01 32 29.55 33.25C28.1 34.5 27.19 39.41 27.41 43.54L40.43 34.61Z"
    fill="#7CBDFF" fill-opacity="1.000000" fill-rule="nonzero" />
  <path id="path"
    d="M64.5 40.67L62.98 40.09C58.87 38.51 55.79 38.3 54.42 39.53C53.05 40.76 52.12 45.51 52.26 49.49L64.5 40.67Z"
    fill="#7CBDFF" fill-opacity="1.000000" fill-rule="nonzero" />
</svg>
